<svg width="212" height="25" viewBox="0 0 212 25" fill="none" xmlns="http://www.w3.org/2000/svg">
  <path d="M0 0H6.6772V19.3798H18.4736V24.3953H0V0Z" fill="#FFFFFF"/>
  <path d="M21.012 0H27.6892V24.3953H21.012V0Z" fill="#FFFFFF"/>
  <path d="M79.0905 0H85.7677V9.8946L95.0045 0H102.795L92.7046 10.7476L103.166 24.3953H95.3755L88.4386 15.149L85.7677 17.9467V24.3953H79.0905V0Z" fill="#FFFFFF"/>
  <path d="M104.956 24.3953V0H111.633L120.907 14.5007H120.981V0H127.658V24.3953H120.981L111.707 9.8946H111.633V24.3953H104.956Z" fill="#FFFFFF"/>
  <path d="M32.4184 24.3997V0.0044263H39.0956L69.788 14.5051H69.8622V0.0044263H76.5394V24.3997H69.8622L39.1698 9.89902H39.0956V24.3997H32.4184Z" fill="#FFFFFF"/>
  <path d="M185.568 16.2749C185.568 20.9834 183.751 24.9412 176.48 24.9412C169.209 24.9412 167.392 20.9834 167.392 16.2749V14.2277H173.327V16.2749C173.327 18.595 173.92 19.9257 176.109 19.9257C178.298 19.9257 178.891 18.595 178.891 16.2749V0H185.568V16.2749Z" fill="#FFFFFF"/>
  <path d="M203.617 19.3115H194.528L192.822 24.3953H186.145L195.752 0H202.43L212 24.3953H205.323L203.617 19.3115ZM196.049 14.6372H202.133L199.128 5.62968H199.054L196.049 14.6372Z" fill="#FFFFFF"/>
  <path d="M141.795 24.3953V0H148.472L157.746 14.5007H157.82V0H164.497V24.3953H157.82L148.546 9.8946H148.472V24.3953H141.795Z" fill="#FFFFFF"/>
  <path d="M131.134 0.00135315H137.811V24.3966H131.134V0.00135315Z" fill="#FFFFFF"/>
</svg>
