<svg width="400" height="400" viewBox="0 0 400 400" fill="none" xmlns="http://www.w3.org/2000/svg">
<path d="M105.303 218.765V165.79H127.087L227.217 197.279H227.459V165.79H249.242V218.765H227.459L127.329 187.276H127.087V218.765H105.303Z" fill="black"/>
<path d="M176.852 56.0547C97.5695 56.0547 33.3334 120.413 33.3334 199.846C33.3334 279.278 97.5695 343.636 176.852 343.636C256.134 343.636 320.37 279.278 320.37 199.846C320.37 185.13 318.16 170.937 314.063 157.572L351.053 188.284L366.667 152.006L309.838 145.692C309.462 144.764 309.08 143.842 308.681 142.926L363.594 119.485L340.625 87.1553L305.666 136.386C282.274 88.7903 233.391 56.0547 176.852 56.0547ZM100.122 150.574H252.066C276.574 150.574 283.877 179.413 283.2 199.272C282.517 219.466 259.016 241.325 241.401 241.325C205.764 241.325 198.796 217.988 176.094 217.97C153.391 217.988 146.424 241.325 110.787 241.325C93.1713 241.325 69.6702 219.466 68.9873 199.272C68.3102 179.413 75.6135 150.574 100.122 150.574Z" fill="black"/>
</svg>
