<svg width="128" height="128" viewBox="0 0 128 128" fill="none" xmlns="http://www.w3.org/2000/svg">
<rect width="128" height="128" fill="#CEF17B"/>
<path d="M36.7557 70.1585V53.8685H43.4541L74.2442 63.5514H74.3186V53.8685H81.017V70.1585H74.3186L43.5285 60.4757H43.4541V70.1585H36.7557Z" fill="#171717"/>
<path d="M58.7569 20.125C34.3776 20.125 14.625 39.9151 14.625 64.3407C14.625 88.7663 34.3776 108.556 58.7569 108.556C83.1363 108.556 102.889 88.7663 102.889 64.3407C102.889 59.8157 102.209 55.4512 100.949 51.3416L112.324 60.7856L117.125 49.6301L99.6502 47.6885C99.5345 47.4032 99.4171 47.1197 99.2943 46.838L116.18 39.6298L109.117 29.6884L98.3671 44.827C91.1744 30.1912 76.1428 20.125 58.7569 20.125ZM35.1624 49.1897H81.8853C89.4215 49.1897 91.6673 58.0578 91.4591 64.1642C91.2491 70.374 84.0225 77.0955 78.6056 77.0955C67.6474 77.0955 65.5049 69.9193 58.5238 69.914C51.5428 69.9193 49.4003 77.0955 38.442 77.0955C33.0252 77.0955 25.7986 70.374 25.5886 64.1642C25.3804 58.0578 27.6261 49.1897 35.1624 49.1897Z" fill="#171717"/>
</svg>
